<?xml version="1.0" standalone="no"?>
<!DOCTYPE svg PUBLIC "-//W3C//DTD SVG 1.1//EN" "http://www.w3.org/Graphics/SVG/1.1/DTD/svg11.dtd" >
<svg xmlns="http://www.w3.org/2000/svg">
<metadata>Generated by IcoMoon</metadata>
<defs>
<font id="aliyun-console-font" horiz-adv-x="512">
<font-face units-per-em="512" ascent="480" descent="-32" />
<missing-glyph horiz-adv-x="512" />
<glyph unicode="&#x20;" d="" horiz-adv-x="256" />
<glyph unicode="&#xe600;" d="M289.124 287.448v-71.82l-13.168-12.916-10.872 0.064v12.008h9.776v72.664h-40.796v12.388h60.472l-4.48-12.388h-0.932zM212.364 206.804l-13.94-6.644v99.84h33.564v-36.472l-6.66-6.12 6.66-5.736v-26.9l-11.76-11.808h-7.86v-6.16zM212.364 288.14v-24.56l5.728-0.048v24.608h-5.728zM212.364 251.676v-26.9h5.728v26.9h-5.728zM259.304 212.080h-21.652v66.068h33.832v-54.6l-12.18-11.468zM250.876 266.724v-43.388h7.336v43.388h-7.336zM394.656 223.288h-32.732v-8.992h39.912l-4.896-11.048h-89.448v11.048h37.412v8.992h-36.372v11h36.372v7.652h-36.372v57.952h90.704v-45.084l-16.076-12.864h-21.236v-7.652h38.144l-5.412-11.004zM324.92 288.88v-12.54h19.98v12.54h-19.98zM324.92 265.54v-12.752h19.98v12.752h-19.98zM382.84 288.88h-20.916v-12.54h19.872l-4.624-10.8h-15.248v-12.752h20.916v36.092zM415.024 286.284v13.332h95.648l-6.352-13.332h-89.296zM450.984 252.952l-15.976-36.524h54.384l-7.24 29.976h17.176l11.024-43.956h-17.584l-2.18 9.092-2.708-8.344-72.18 0.056v11.748l17.328 37.956h-18v13.284h95.272l-6.136-13.284h-53.18zM379.5 154.596c-1.54 0-2.832 0.476-3.852 1.464-1.032 0.976-1.536 2.172-1.536 3.604 0 1.472 0.52 2.668 1.576 3.596 1.072 0.948 2.388 1.412 3.96 1.412 1.608 0 2.916-0.48 3.92-1.416 1.020-0.944 1.532-2.14 1.532-3.588 0-1.488-0.524-2.7-1.56-3.652-1.028-0.948-2.384-1.42-4.040-1.42zM218.032 159.496h-0.128c-2.004-3.588-6.332-5.6-10.272-5.6-5.888 0-11.632 3.456-11.632 9.628 0 4.844 2.388 7.68 5.68 9.256 3.296 1.576 7.564 1.888 11.18 1.888h4.78c0 5.228-2.392 6.996-7.5 6.996-3.668 0-7.356-1.396-10.26-3.532l-0.252 7.24c3.356 1.512 7.876 2.456 11.556 2.456 10.148 0 14.344-4.092 14.344-13.664v-4.152c0-3.276 0.060-5.74 0.124-8.12 0.068-2.456 0.2-4.728 0.388-7.24h-7.624c-0.324 1.7-0.324 3.832-0.384 4.844zM204.272 164.024c0-2.764 2.388-3.964 5.492-3.964 2.656 0 4.712 1.128 6.064 2.896 1.42 1.824 1.812 4.156 1.812 6.676h-3.748c-3.876-0.004-9.62-0.632-9.62-5.608zM233.156 200.576h8.648v-45.92h-8.648v45.92zM254.084 190.412c-1.576 0-2.884 0.476-3.884 1.448-1.008 0.96-1.504 2.148-1.504 3.56 0 1.444 0.496 2.62 1.504 3.536 1 0.916 2.312 1.36 3.884 1.36 1.588 0 2.892-0.444 3.892-1.36 0.996-0.916 1.5-2.088 1.5-3.536 0-1.472-0.504-2.668-1.5-3.604-1-0.936-2.3-1.404-3.892-1.404zM249.752 154.652v32.416h8.664v-32.416h-8.664zM271.452 140.672c-2.056 0-4.128 0.32-6.132 0.884l0.584 6.228c1.1-0.376 2.332-0.564 4.456-0.564 3.488 0 5.624 2.324 5.624 5.796l-12.736 34.056h9.572l8.008-23.672h0.132l8.016 23.672h8.772l-12.46-32.168c-2.776-7.184-4.78-14.232-13.836-14.232zM322.648 159.060h-0.128c-2.652-3.152-6.404-5.164-10.916-5.164-7.876 0-11.304 5.408-11.304 12.716v20.46h8.664v-17.316c0-3.956 0.056-9.312 5.612-9.312 6.268 0 7.624 6.604 7.624 10.76v15.868h8.656v-32.416h-8.208v4.404zM359.984 171.96c0 3.96-0.064 9.32-5.624 9.32-6.256 0-7.604-6.612-7.604-10.768v-15.86h-8.664v32.416h8.2v-4.408h0.128c2.724 3.72 6.404 5.164 10.916 5.164 7.884 0 11.312-5.416 11.312-12.724v-20.452h-8.664v17.312zM414.292 161.952l0.396-6.996c-2.524-0.752-5.1-1.068-8.664-1.068-10.912 0-16.4 7.244-16.4 17.132 0 9.372 5.688 16.804 16.080 16.804 3.496 0 6.004-0.384 8.4-1.072l-0.772-6.676c-1.556 0.7-3.228 1.2-5.884 1.2-5.352 0-8.776-4.164-8.776-10.256 0-5.988 2.908-10.584 8.972-10.584 2.456 0.004 5.164 0.884 6.648 1.516zM418.956 170.636c0 10.708 7.548 17.192 17.364 17.192 9.892 0 17.444-6.484 17.444-17.192 0-9.316-6.4-16.748-17.444-16.748-10.976 0.004-17.364 7.432-17.364 16.748zM427.988 171.648c0-5.352 1.748-11.204 8.332-11.204 6.656 0 8.4 5.788 8.4 11.204 0 4.968-2.716 9.632-8.4 9.632-5.616 0-8.332-4.788-8.332-9.632zM499.584 173.972c0 3.028 0 7.308-4.96 7.308-5.752 0-6.46-6.676-6.46-10.904v-15.728h-8.664v19.316c0 3.032 0 7.308-4.964 7.308-5.752 0-6.46-6.676-6.46-10.9v-15.732h-8.664v32.42h8.076v-4.54c2.844 3.972 6.788 5.296 10.016 5.296 4.652 0 7.944-1.7 9.82-5.736 2.004 3.912 6.332 5.736 10.4 5.736 8.208 0 10.532-5.476 10.532-12.724v-20.452h-8.664v19.332zM129.192 239.092c-17.392-10.244-24.18-8.432-38.6-2.436-0.46 0.224-1.58 0.644-2.080 0.804-1.144 0.364-2.34 0.58-3.6 0.58-1.212 0-2.364-0.192-3.468-0.536-0.532-0.168-1.712-0.588-2.212-0.832-15.344-6.224-20.764-7.964-38.556 2.552-2.408 1.424-5.188 2.236-8.172 2.236-9.032 0.028-16.38-7.464-16.384-16.72-0.024-9.248 7.292-16.772 16.336-16.788 2.992 0 5.796 0.82 8.212 2.264 16.632 9.82 25.14 8.772 28.528 6.048 1.084-0.88 0.004-2.188-2.696-5.644-3.936-5.028-13.308-12.532-21.208-20.256-3.12-3.048-5.1-7.328-5.104-12.096-0.012-9.252 7.312-16.776 16.352-16.788 1.828 0 4.216 0.508 6.092 1.032 15.46 4.328 28.468 12.016 36.684 16.124 2.176 1.088 0.944-0.736 3.16-6.204 1.736-4.284 6.4-10.58 13.492-11.1 10.584-0.784 16.932 8.252 14.26 17.472-3.136 10.792-13.724 18.716-25.236 14.068-12.076-4.876-23-7.592-34.872-7.62-2.28 0.168-1.848 1.148-1.5 2.356 1.604 5.46 10.504 21.136 21.32 26.584 10.712 5.408 20.188 7.136 39.108-4.096 2.424-1.428 5.22-2.292 8.22-2.292 9.048-0.028 16.388 7.464 16.416 16.72 0.004 9.248-7.316 16.764-16.364 16.776-2.96 0.004-5.736-0.792-8.128-2.208zM66.944 256.596c17.428 10.312 18.56 10.324 36.008-0.064 2.408-1.44 5.192-2.264 8.184-2.28 9.052 0 16.396 7.476 16.416 16.752 0.008 9.244-7.316 16.756-16.364 16.768-2.976 0.016-5.764-0.808-8.168-2.236-17.492-10.32-18.496-10.32-36.076 0.064-2.404 1.428-5.188 2.244-8.164 2.244-9.044 0.024-16.392-7.464-16.4-16.724-0.012-9.252 7.312-16.76 16.352-16.776 2.996 0.004 5.792 0.828 8.212 2.252zM138.272 306.396c-28.924 5.18-78.128 5.256-106.856 0.152-20.832-3.708-25.096-8.484-28.716-29.644-5.060-29.588-5.144-79.932-0.164-109.332 3.612-21.332 8.276-25.688 28.972-29.396 28.924-5.176 78.132-5.26 106.868-0.16 20.836 3.704 25.108 8.468 28.724 29.648 5.064 29.596 5.136 79.948 0.144 109.348-3.62 21.316-8.284 25.68-28.972 29.384zM32.788 147.964c-17.888 3.208-19.812 5.148-22.856 23.12-4.796 28.304-4.72 78.156 0.16 106.688 3.128 18.292 5.028 20.256 22.596 23.384 13.12 2.332 31.864 3.668 51.428 3.668 20.044 0 39.32-1.392 52.876-3.82 17.884-3.204 19.808-5.144 22.864-23.116 4.808-28.3 4.74-78.164-0.144-106.7-3.124-18.296-5.024-20.26-22.604-23.388-13.104-2.328-31.832-3.656-51.38-3.656-20.072 0.004-39.368 1.396-52.94 3.82z" />
<glyph unicode="&#xe601;" d="M387.836 272.832c-51.752-29.788-71.944-24.524-114.86-7.084-1.368 0.648-4.692 1.868-6.18 2.336-3.408 1.060-6.96 1.692-10.72 1.692-3.596 0-7.036-0.564-10.32-1.56-1.584-0.484-5.096-1.708-6.58-2.424-45.664-18.1-61.784-23.156-114.728 7.42-7.16 4.148-15.436 6.5-24.32 6.5-26.88 0.084-48.744-21.7-48.756-48.624-0.076-26.888 21.692-48.776 48.616-48.816 8.904 0 17.252 2.392 24.44 6.58 49.488 28.572 74.808 25.528 84.896 17.6 3.228-2.564 0.012-6.368-8.028-16.42-11.72-14.612-39.596-36.444-63.108-58.912-9.28-8.864-15.176-21.316-15.184-35.176-0.044-26.92 21.752-48.8 48.656-48.828 5.44 0 12.544 1.472 18.132 3 45.996 12.576 84.712 34.928 109.152 46.884 6.48 3.176 2.812-2.132 9.4-18.040 5.164-12.456 19.048-30.756 40.148-32.28 31.504-2.28 50.392 24.008 42.428 50.812-9.324 31.4-40.836 54.428-75.084 40.908-35.936-14.172-68.444-22.084-103.772-22.156-6.792 0.484-5.508 3.336-4.46 6.84 4.776 15.888 31.256 61.476 63.44 77.316 31.876 15.732 60.076 20.756 116.376-11.916 7.208-4.156 15.536-6.672 24.46-6.672 26.924-0.080 48.768 21.712 48.852 48.632 0.012 26.892-21.768 48.756-48.7 48.784-8.82 0.032-17.088-2.28-24.196-6.396zM202.608 323.736c51.868 29.988 55.224 30.020 107.152-0.176 7.16-4.196 15.456-6.592 24.352-6.632 26.928 0 48.784 21.744 48.856 48.716 0.024 26.88-21.764 48.736-48.692 48.768-8.86 0.044-17.156-2.348-24.308-6.5-52.052-30.004-55.032-30.004-107.348 0.18-7.144 4.16-15.436 6.524-24.288 6.524-26.912 0.072-48.78-21.7-48.8-48.632-0.036-26.904 21.756-48.74 48.668-48.784 8.884 0 17.208 2.396 24.408 6.536zM414.856 468.56c-86.076 15.064-232.48 15.292-317.964 0.44-61.992-10.78-74.684-24.676-85.444-86.212-15.060-86.048-15.304-232.452-0.488-317.956 10.752-62.036 24.624-74.7 86.208-85.48 86.068-15.048 232.5-15.304 318.004-0.464 62.012 10.76 74.716 24.616 85.472 86.216 15.064 86.080 15.288 232.5 0.428 318.008-10.78 61.984-24.656 74.676-86.216 85.448zM100.972 7.82c-53.224 9.32-58.948 14.972-68.008 67.236-14.272 82.312-14.048 227.292 0.476 310.264 9.304 53.196 14.96 58.912 67.236 68 39.036 6.784 94.82 10.672 153.036 10.672 59.648 0 116.996-4.048 157.336-11.104 53.22-9.312 58.936-14.964 68.040-67.228 14.296-82.304 14.092-227.312-0.432-310.296-9.296-53.216-14.956-58.932-67.26-68.008-38.996-6.772-94.724-10.648-152.888-10.648-59.736 0.012-117.152 4.056-157.536 11.112z" />
<glyph unicode="&#xe602;" d="M414.788 468.564c-86.060 15.060-232.444 15.292-317.912 0.436-61.98-10.776-74.672-24.668-85.428-86.192-15.056-86.032-15.3-232.412-0.484-317.9 10.748-62.020 24.62-74.684 86.192-85.464 86.056-15.044 232.46-15.3 317.952-0.464 62 10.76 74.7 24.612 85.46 86.2 15.060 86.060 15.284 232.456 0.432 317.952-10.784 61.98-24.66 74.668-86.212 85.44zM201.016 406.724c53.852-31.092 56.912-31.104 110.492-0.204 7.38 4.26 15.9 6.716 25.028 6.704 27.704-0.048 50.14-22.54 50.104-50.204-0.064-27.76-22.564-50.16-50.28-50.132-9.148 0.008-17.692 2.504-25.056 6.796-53.444 31.088-56.912 31.024-110.312 0.188-7.384-4.276-15.964-6.72-25.116-6.712-27.704 0.028-50.124 22.532-50.080 50.216 0.020 27.708 22.532 50.116 50.228 50.056 9.116-0.028 17.64-2.46 24.996-6.704zM391.228 180.668c-57.956 33.636-86.972 28.448-119.78 12.264-33.14-16.32-60.368-63.24-65.296-79.568-1.080-3.616-2.416-6.548 4.588-7.068 36.36 0.064 69.812 8.216 106.804 22.816 35.268 13.908 67.688-9.788 77.292-42.096 8.192-27.592-11.252-54.648-43.664-52.3-21.72 1.576-36.008 20.372-41.32 33.212-6.78 16.388-3.024 21.812-9.672 18.56-25.164-12.28-65.020-35.316-112.344-48.232-5.768-1.568-13.076-3.12-18.688-3.096-27.692 0.044-50.12 22.524-50.076 50.24 0.024 14.276 6.076 27.088 15.648 36.22 24.184 23.136 52.892 45.604 64.944 60.652 8.28 10.34 11.572 14.256 8.28 16.872-10.408 8.196-36.472 11.316-87.408-18.108-7.408-4.276-15.972-6.768-25.156-6.756-27.692 0.044-50.096 22.568-50.040 50.26 0.020 27.7 22.524 50.092 50.204 50.052 9.116 0 17.66-2.46 25.024-6.724 54.472-31.452 71.076-26.26 118.072-7.628 1.536 0.732 5.136 2.016 6.792 2.516 3.364 1.036 6.9 1.588 10.604 1.588 3.86 0 7.54-0.64 11.048-1.764 1.512-0.472 4.94-1.7 6.36-2.388 44.168-17.952 64.944-23.356 118.216 7.292 7.332 4.224 15.832 6.636 24.904 6.604 27.716-0.056 50.14-22.532 50.096-50.232-0.052-27.7-22.532-50.112-50.248-50.056-9.196 0.012-17.756 2.568-25.18 6.88z" />
<glyph unicode="&#xe603;" d="M502.668 22.584l-154.164 154.168c22.352 31.388 35.496 69.784 35.496 111.248 0 106.040-85.96 192-192 192s-192-85.96-192-192 85.96-192 192-192c41.468 0 79.864 13.144 111.248 35.496l154.164-154.164c12.492-12.496 32.78-12.472 45.252 0 12.5 12.496 12.508 32.752 0.004 45.252zM192 144c-79.528 0-144 64.472-144 144s64.472 144 144 144 144-64.472 144-144-64.472-144-144-144z" />
<glyph unicode="&#xe604;" d="M256 400l160-160h-320l160 160zM192 208v-112h128v112h-128zM192 96v-48h224v48h-224z" />
<glyph unicode="&#xe605;" d="M96 208h320l-160-160-160 160zM416 240h-320l160 160 160-160z" />
<glyph unicode="&#xe606;" d="M160 304h-64l160-160 160 160h-64l-96-96-96 96z" />
<glyph unicode="&#xe607;" d="M352 144h64l-160 160-160-160h64l96 96 96-96z" />
<glyph unicode="&#xe608;" d="M96 304h320l-160-160-160 160z" />
<glyph unicode="&#xe609;" d="M336 384v-320l-160 160 160 160z" />
<glyph unicode="&#xe60a;" d="M176 64v320l160-160-160-160z" />
<glyph unicode="&#xe60b;" d="M256 304l160-160h-320z" />
<glyph unicode="&#xe60c;" d="M256-32c141.384 0 256 114.616 256 256s-114.616 256-256 256c-141.384 0-256-114.616-256-256 0-141.384 114.616-256 256-256zM198.976 312.032h95.536c4.096 0 7.244-1.236 9.44-3.712s3.292-6.044 3.292-10.704c0-1.6-0.184-3.424-0.548-5.46-0.364-2.040-0.84-4.076-1.428-6.116l-46.316-191.14c-0.44-2.040-0.768-3.86-0.988-5.46-0.22-1.6-0.328-2.912-0.328-3.932 0-4.076 1.352-7.244 4.060-9.504 2.708-2.256 37.84-2.492 42.964-2.492l-2.636-9.412h-93.78c-4.828 0-8.744 1.348-11.744 4.040-3 2.696-4.5 6.152-4.5 10.376 0 0.728 0.22 2.184 0.66 4.368 0.148 0.728 0.22 1.312 0.22 1.748l47.636 195.508c0.584 2.184 0.988 4.040 1.208 5.572 0.22 1.528 0.328 2.804 0.328 3.824 0 3.496-0.988 6.264-2.964 8.3-1.976 2.040-36.892 3.040-42.304 4.788l2.196 9.412zM258.244 383.488h46.756c4.976 0 8.672-0.924 11.084-2.768 2.416-1.844 3.62-4.612 3.62-8.3 0-0.568-0.036-1.24-0.108-2.020-0.072-0.78-0.328-2.092-0.768-3.936l-7.512-28.7h-42.74c-6 0-10.592 0.22-13.736 2.42-3.148 2.2-4.72 5.428-4.72 9.684 0 1.42 0.072 2.732 0.22 3.936 0.148 1.204 0.364 2.376 0.66 3.512l7.244 26.172z" />
<glyph unicode="&#xe60d;" d="M256 480c-141.384 0-256-114.616-256-256s114.616-256 256-256c141.384 0 256 114.616 256 256 0 141.384-114.616 256-256 256zM280 64h-48v48h48v-48zM280.14 143.668h-48.056l-16.084 240.332h80l-15.86-240.332z" />
<glyph unicode="&#xe60e;" d="M256 480c-141.384 0-256-114.616-256-256s114.616-256 256-256c141.384 0 256 114.616 256 256 0 141.384-114.616 256-256 256zM272 64h-44v44h44v-44zM302.304 201.004c-16.736-8.692-24.648-17.804-26.728-28.188-0.248-1.248-0.484-2.544-0.712-3.88-1.024-6.148-1.724-12.912-2.132-19.696-0.148-2.392-0.248-4.604-0.304-6.58-0.040-1.136 0.304-2.804 0.304-3.14l-45.756 0.56c0.020 2.368-0.3 6.964 0 11.896 0.504 8.224 1.356 16.472 2.664 24.332 0.3 1.804 0.624 3.58 0.972 5.312 5.024 25.076 22.224 44.872 50.364 59.496 13.88 7.212 28.64 35.156 28.64 48.944 0 9.1-2.916 20.432-9.080 29.152-8.608 12.176-23.108 19.316-47.448 19.316-22.984 0-39.216-9.456-51.22-26.072-4.416-6.116-7.908-12.788-10.516-19.452l-0.004-0.004c-0.9-2.308-1.62-4.42-2.164-6.26l-0.452-1.612-44.74 9.856c0.232 1.028 0.624 2.552 1.204 4.5 0.896 3.020 2.020 6.328 3.4 9.856 3.912 10.004 9.148 20.004 15.968 29.444 20.112 27.84 49.656 45.052 88.524 45.052 39 0 67.652-14.104 85.016-38.668 12.14-17.172 17.344-37.424 17.344-55.112 0.004-29.664-23.128-73.456-53.144-89.052z" />
<glyph unicode="&#xe60f;" d="M256 480c-141.384 0-256-114.616-256-256s114.616-256 256-256c141.384 0 256 114.616 256 256 0 141.384-114.616 256-256 256zM211.244 104v0 0 0l-115.24 116.056 33.568 33.8 81.672-82.248 171.184 172.392 33.572-33.804-204.756-206.196z" />
<glyph unicode="&#xe610;" d="M256-32c141.384 0 256 114.616 256 256s-114.616 256-256 256c-141.384 0-256-114.616-256-256 0-141.384 114.616-256 256-256zM352.168 354.108l33.94-33.94-96.168-96.168 96.168-96.168-33.94-33.94-96.168 96.168-96.168-96.168-33.94 33.94 96.168 96.168-96.168 96.168 33.94 33.94 96.168-96.168 96.168 96.168z" />
<glyph unicode="&#xe611;" d="M256 480c-141.384 0-256-114.616-256-256s114.616-256 256-256c141.384 0 256 114.616 256 256 0 141.384-114.616 256-256 256zM416 188h-320v64h320v-64z" />
<glyph unicode="&#xe612;" d="M512 224c0 141.384-114.616 256-256 256-141.384 0-256-114.616-256-256 0-141.384 114.616-256 256-256 141.384 0 256 114.616 256 256zM224 384h64v-128h128v-64h-128v-128h-64v128h-128v64h128v128z" />
<glyph unicode="&#xe613;" d="M198.976 312.032h0.004v0.004zM294.512 312.032h-95.532l-2.196-9.408c5.412-1.752 40.328-2.752 42.304-4.788s2.964-4.804 2.964-8.3c0-1.020-0.108-2.296-0.328-3.824-0.22-1.532-0.624-3.388-1.208-5.572l-47.636-195.508c0-0.436-0.072-1.024-0.22-1.752-0.44-2.184-0.66-3.64-0.66-4.368 0-4.224 1.5-7.68 4.5-10.376s6.916-4.040 11.744-4.040h93.78l2.636 9.412c-5.124 0-40.252 0.24-42.964 2.492-2.708 2.26-4.060 5.424-4.060 9.504 0 1.020 0.108 2.332 0.328 3.928 0.22 1.6 0.548 3.42 0.988 5.46l46.312 191.148c0.588 2.040 1.068 4.076 1.428 6.116 0.368 2.036 0.548 3.86 0.548 5.46 0 4.66-1.092 8.228-3.288 10.704s-5.344 3.712-9.44 3.712zM256 480c-141.384 0-256-114.616-256-256s114.616-256 256-256c141.384 0 256 114.616 256 256 0 141.384-114.616 256-256 256zM256 0c-123.712 0-224 100.288-224 224s100.288 224 224 224c123.712 0 224-100.288 224-224s-100.288-224-224-224zM316.084 380.72c-2.416 1.844-6.108 2.768-11.084 2.768h-46.756l-7.244-26.172c-0.296-1.136-0.512-2.308-0.66-3.512-0.148-1.204-0.22-2.516-0.22-3.936 0-4.256 1.572-7.484 4.72-9.684 3.144-2.2 7.74-2.42 13.74-2.42h42.74l7.512 28.7c0.436 1.844 0.696 3.156 0.764 3.936 0.076 0.78 0.108 1.452 0.108 2.020 0 3.688-1.204 6.456-3.62 8.3z" />
<glyph unicode="&#xe614;" d="M232.084 143.668h48.056l15.86 240.332h-80zM232 112h48v-48h-48v48zM256 480c-141.384 0-256-114.616-256-256s114.616-256 256-256c141.384 0 256 114.616 256 256 0 141.384-114.616 256-256 256zM256 0c-123.712 0-224 100.288-224 224s100.288 224 224 224c123.712 0 224-100.288 224-224s-100.288-224-224-224z" />
<glyph unicode="&#xe615;" d="M253.092 383.832c-38.868 0-68.412-17.212-88.524-45.052-6.82-9.44-12.056-19.44-15.968-29.444-1.38-3.528-2.504-6.836-3.4-9.856-0.58-1.948-0.972-3.472-1.204-4.5l44.74-9.856 0.452 1.612 0.004 0.004c0.544 1.84 1.264 3.952 2.164 6.26 2.608 6.664 6.1 13.336 10.516 19.452 12.004 16.616 28.236 26.072 51.22 26.072 24.336 0 38.836-7.14 47.448-19.316 6.164-8.72 9.080-20.052 9.080-29.152 0-13.788-14.76-41.732-28.64-48.944-28.14-14.624-45.34-34.42-50.364-59.496-0.348-1.736-0.672-3.508-0.972-5.312-1.308-7.86-2.16-16.108-2.664-24.332-0.3-4.928 0.020-9.528 0-11.896l45.756-0.556c0 0.336-0.344 2.004-0.304 3.14 0.060 1.972 0.156 4.188 0.304 6.58 0.412 6.784 1.108 13.548 2.132 19.696 0.228 1.336 0.46 2.632 0.712 3.88 2.080 10.384 9.992 19.496 26.728 28.188 30.016 15.596 53.148 59.388 53.148 89.048 0 17.688-5.204 37.94-17.344 55.112-17.368 24.564-46.020 38.668-85.020 38.668zM228 108h44v-44h-44v44zM256 480c-141.384 0-256-114.616-256-256s114.616-256 256-256c141.384 0 256 114.616 256 256 0 141.384-114.616 256-256 256zM256 0c-123.712 0-224 100.288-224 224s100.288 224 224 224c123.712 0 224-100.288 224-224s-100.288-224-224-224z" />
<glyph unicode="&#xe616;" d="M344.168 354.108l-96.168-96.168-96.168 96.168-33.94-33.94 96.168-96.168-96.168-96.168 33.94-33.94 96.168 96.172 96.168-96.172 33.94 33.94-96.172 96.168 96.172 96.168zM248 480c-141.384 0-256-114.616-256-256s114.616-256 256-256c141.384 0 256 114.616 256 256 0 141.384-114.616 256-256 256zM248 0c-123.712 0-224 100.288-224 224s100.288 224 224 224c123.712 0 224-100.288 224-224s-100.288-224-224-224z" />
<glyph unicode="&#xe617;" d="M382.428 344l-171.184-172.392-81.672 82.248-33.568-33.8 115.24-116.056 204.756 206.196zM211.244 104v0h-0.004zM256 480c-141.384 0-256-114.616-256-256s114.616-256 256-256c141.384 0 256 114.616 256 256 0 141.384-114.616 256-256 256zM256 0c-123.712 0-224 100.288-224 224s100.288 224 224 224c123.712 0 224-100.288 224-224s-100.288-224-224-224z" />
<glyph unicode="&#xe618;" d="M104 260.088h304v-64h-304v64zM256 484.088c-141.384 0-256-114.616-256-256s114.616-256 256-256c141.384 0 256 114.616 256 256s-114.616 256-256 256zM256 4.084c-123.712 0-224 100.288-224 224s100.288 224 224 224c123.712 0 224-100.288 224-224s-100.288-224-224-224z" />
<glyph unicode="&#xe619;" d="M288 256v128h-64v-128h-128v-64h128v-128h64v128h128v64zM256 480c-141.384 0-256-114.616-256-256s114.616-256 256-256c141.384 0 256 114.616 256 256 0 141.384-114.616 256-256 256zM256 0c-123.712 0-224 100.288-224 224s100.288 224 224 224c123.712 0 224-100.288 224-224s-100.288-224-224-224z" />
<glyph unicode="&#xe61a;" d="M188.936 339.344h122.752c5.252 0 8.936-1.592 11.748-4.78s4.22-7.78 4.22-13.78c0-2.064-0.236-4.408-0.704-7.032-0.468-2.624-1.080-5.248-1.828-7.876l-59.344-250.092c-0.564-2.624-0.984-4.968-1.264-7.032s-0.42-3.748-0.42-5.064c0-5.252 1.736-9.328 5.204-12.236 3.468-2.908 48.484-4.36 55.048-4.36l-3.376-10.968h-120.156c-6.188 0-11.204 1.736-15.048 5.204s-5.764 7.92-5.764 13.36c0 0.936 0.28 2.812 0.844 5.624 0.188 0.936 0.28 1.688 0.28 2.252l61.032 255.72c0.752 2.812 1.264 5.204 1.548 7.172 0.28 1.968 0.42 3.608 0.42 4.92 0 4.5-1.264 8.064-3.796 10.688-2.532 2.624-47.264 5.064-54.204 7.312l2.812 10.968zM264.872 431.344h59.908c6.376 0 11.108-1.188 14.204-3.56 3.092-2.376 4.64-5.936 4.64-10.684 0-0.732-0.048-1.6-0.14-2.604-0.092-1.004-0.42-2.696-0.984-5.068l-9.624-36.952h-54.76c-7.688 0-13.572 0.284-17.6 3.116-4.032 2.832-6.048 6.988-6.048 12.464 0 1.828 0.092 3.516 0.28 5.068 0.188 1.552 0.468 3.060 0.844 4.52l9.28 33.7z" />
<glyph unicode="&#xe61b;" d="M286.56 112l17.44 320h-96l17.792-320h60.764zM224 80v-64h64v64h-64z" />
<glyph unicode="&#xe61c;" d="M223.312 16.12h64v64h-64v-64zM174.12 312.472c3.64 8.76 8.516 17.532 14.684 25.572 16.76 21.84 39.42 34.276 71.516 34.276 33.976 0 54.228-9.388 66.244-25.392 8.608-11.46 12.676-26.36 12.676-38.324 0-18.128-20.612-54.86-39.996-64.344-39.288-19.224-63.304-45.252-70.316-78.212-0.484-2.28-0.936-4.612-1.36-6.992-1.828-10.332-3.020-21.176-3.72-31.984-0.42-6.476-0.588-11.588-0.616-14.704l63.996-0.484 0.072 2.952c0.084 2.592 0.224 5.504 0.428 8.652 0.58 8.92 1.552 17.804 2.984 25.888 0.312 1.76 0.644 3.464 0.992 5.1 2.904 13.652 13.956 25.632 37.316 37.060 41.912 20.504 74.216 78.072 74.216 117.068 0 23.256-7.268 49.88-24.22 72.452-24.252 32.292-64.244 50.832-118.7 50.832-54.272 0-95.52-22.628-123.6-59.224-9.524-12.412-16.832-25.556-22.296-38.708-1.928-4.636-3.496-8.984-4.748-12.956-0.808-2.564-1.356-4.564-1.68-5.916l62.468-12.956 0.628 2.12c0.76 2.42 1.764 5.196 3.024 8.228z" />
<glyph unicode="&#xe61d;" d="M208.408 232l-138.572 138.572 39.592 39.592 138.572-138.572 138.572 138.572 39.592-39.592-138.572-138.572 138.572-138.572-39.592-39.592-138.572 138.572-138.572-138.572-39.592 39.592 138.572 138.572z" />
<glyph unicode="&#xe61e;" d="M27.216 204l164.784-164.784 292.784 292.784-48 48-244.784-244.784-116.784 116.784-48-48z" />
<glyph unicode="&#xe61f;" d="M32 256v-64h448v64z" />
<glyph unicode="&#xe620;" d="M224 256v192h64v-192h192v-64h-192v-192h-64v192h-192v64h192z" />
<glyph unicode="&#xe621;" d="M258.784-32.416h-0.008c-59.584 0-117.168 4.092-157.976 11.232-63.96 11.2-79.108 26.216-90.032 89.292-14.548 83.968-14.324 226.424 0.484 311.068 11.168 63.924 26.192 79.068 89.276 90.032 40.032 6.952 94.54 10.792 153.476 10.792 59.46 0 116.924-4.084 157.632-11.208 63.94-11.192 79.076-26.216 90.032-89.292 14.568-83.984 14.368-226.468-0.448-311.132-11.152-63.94-26.184-79.076-89.276-90.048-39.968-6.924-94.368-10.74-153.16-10.74zM254.008 464.248c-58.060 0-111.608-3.752-150.784-10.56-56.432-9.8-66.432-19.908-76.448-77.216-14.56-83.192-14.776-223.176-0.484-305.684 9.768-56.4 19.876-66.416 77.224-76.46 39.956-6.984 96.54-10.984 155.26-10.984h0.008c57.932 0 111.36 3.724 150.468 10.492 56.448 9.816 66.444 19.924 76.46 77.248 14.556 83.216 14.756 223.216 0.448 305.732-9.816 56.424-19.924 66.432-77.232 76.46-39.86 6.976-96.34 10.976-154.924 10.976zM96.808 198.476l0.016-0.672 0.044-1.448 0.044-0.856 0.048-1.512 0.052-0.632 0.056-1.504 0.056-1.436 0.064-1.512 0.060-1.404 0.072-1.512 0.068-1.396 0.080-1.504 0.072-1.384 0.088-1.504 0.080-1.372 0.096-0.168 0.084-9.712 0.104-1.508 0.092-1.324 0.112-1.5 0.1-1.308 0.116-1.496 0.104-1.288 0.128-1.5 0.108-1.256 0.136-1.496 0.112-1.236 0.144-1.476 0.12-1.224 0.152-1.48 0.124-1.188 0.164-1.484 0.128-1.16 0.172-1.472 0.128-1.132 0.184-1.476 0.136-1.088 0.188-1.468 0.14-1.068 0.2-1.464 0.144-1.032 0.216-1.472 0.144-0.98 0.224-1.464 0.148-0.956 0.236-1.448 0.152-0.924 0.26-1.512 0.14-0.816 0.412-2.28 0.424-2.232c6.74-34.372 15.472-38.932 54.12-44.908 27.368-4.228 60.14-6.352 97.040-6.352 35.972 0 71.784 2.016 98.284 6.076l2.128 0.332 1.672 0.272 1.572 0.264 1.78 0.312 1.7 0.312 1.484 0.284 1.412 0.284 1.716 0.364 1.436 0.32 1.32 0.304 2.856 0.72 1.248 0.34 1.172 0.336 1.344 0.412 1.24 0.4 1.088 0.376 1.040 0.376 1.268 0.488 1.996 0.848 0.94 0.432c0.296 0.14 0.58 0.284 9.796 6.804l0.744 0.784 0.928 1.068 1.4 1.804 0.64 0.916 0.656 1.016 0.728 1.232 0.584 1.060 0.576 1.124 0.56 1.172 0.668 1.52 0.528 1.284 0.488 1.284 0.58 1.648 0.492 1.504 0.448 1.444 0.44 1.516 0.524 1.94 0.42 1.636 0.4 1.628c0.128 0.544 0.252-1.368 0.48-0.368l0.412 1.896 0.38 1.816 0.368 1.828 0.44 2.276 0.14 0.764 0.284 1.552 0.172 1.004 0.236 1.364 0.18 1.080 0.22 1.332 0.176 1.124 0.208 1.332 0.176 1.18 0.192 1.32 0.172 1.24 0.18 1.296 0.172 1.268 0.172 1.308 0.164 1.296 0.164 1.316 0.16 1.328 0.156 1.32 0.152 1.36 0.148 1.32 0.148 1.388 0.14 1.328 0.144 1.42 0.128 1.324 0.136 1.448 0.124 1.324 0.132 1.484 0.112 1.32 0.124 1.5 0.108 1.328 0.116 1.512 0.1 1.336 0.112 1.532 0.092 9.712 0.104 0.216 0.084 1.336 0.096 1.58 0.080 1.336 0.088 1.58 0.072 1.36 0.080 1.588 0.068 1.36 0.072 1.604 0.060 1.364 0.068 1.608 0.052 0.548 0.060 1.624 0.048 0.728 0.052 1.64 0.024 0.756-316.648 0.008zM193.792 245.22v125.256l-0.088 1.524c-18.656-1.060-21.336-2.308-35.872-4.688-38.488-6.276-48.124-23.928-54.804-59.832-4.216-22.64-6.568-48.104-7.028-78.532l78.948-0.492c10.396 0 18.844 7.576 18.844 16.76zM244.548 229.724h168.364c-0.328 30.736-2.584 53.908-6.776 76.628-6.688 36.164-15.304 52.608-53.528 58.896-27.004 4.44-63.124 6.668-99.564 6.668-9.124 0-18.232-0.14-27.184-0.42-0.128-0.776-0.252-1.572-0.252-2.384v-122.772c0-9.184 8.544-16.62 18.94-16.62z" />
<glyph unicode="&#xe622;" d="M258.784-32.416h-0.008c-59.584 0-117.168 4.092-157.976 11.232-63.96 11.2-79.108 26.216-90.032 89.292-14.548 83.968-14.324 226.424 0.484 311.068 11.168 63.924 26.192 79.068 89.276 90.032 40.032 6.952 94.54 10.792 153.476 10.792 59.46 0 116.924-4.084 157.632-11.208 63.94-11.192 79.076-26.216 90.032-89.292 14.568-83.984 14.368-226.468-0.448-311.132-11.152-63.94-26.184-79.076-89.276-90.048-39.968-6.924-94.368-10.74-153.16-10.74zM254.008 464.248c-58.060 0-111.608-3.752-150.784-10.56-56.432-9.8-66.432-19.908-76.448-77.216-14.56-83.192-14.776-223.176-0.484-305.684 9.768-56.4 19.876-66.416 77.224-76.46 39.956-6.984 96.54-10.984 155.26-10.984h0.008c57.932 0 111.36 3.724 150.468 10.492 56.448 9.816 66.444 19.924 76.46 77.248 14.556 83.216 14.756 223.216 0.448 305.732-9.816 56.424-19.924 66.432-77.232 76.46-39.86 6.976-96.34 10.976-154.924 10.976zM362.596 364c2.844 0 5.7-0.22 8.528-0.668 2.828-0.444 5.628-1.112 8.36-2.004 2.736-0.892 5.4-2.008 7.956-3.348 2.56-1.344 5.012-2.908 7.312-4.704 4.616-3.6 8.192-7.772 10.704-12.244 2.524-4.492 3.98-9.288 4.34-14.112 0.36-4.844-0.388-9.708-2.276-14.304-1.892-4.62-4.936-8.964-9.148-12.74-2.108-1.892-4.416-3.552-6.872-4.98-2.456-1.424-5.064-2.616-7.776-3.568-2.712-0.952-5.532-1.668-8.408-2.144-2.88-0.48-5.816-0.716-8.764-0.716-1.396 0-2.788 0.052-4.184 0.16-1.396 0.108-2.788 0.268-4.172 0.48-1.388 0.216-2.764 0.48-4.132 0.8-1.368 0.32-2.72 0.692-4.060 1.12l-36.936-32.576c2.632-4.148 4.628-8.536 5.976-13.044 1.356-4.528 2.064-9.184 2.112-13.852 0.048-4.688-0.564-9.388-1.848-13.98-1.292-4.616-3.256-9.124-5.908-13.404l39.752-34.34c1.532 0.616 3.092 1.152 4.68 1.612 1.584 0.46 3.196 0.844 4.824 1.152 1.624 0.304 3.272 0.536 4.924 0.688 1.656 0.152 3.32 0.232 4.992 0.232 3.112 0 6.236-0.268 9.332-0.8 3.096-0.532 6.164-1.328 9.156-2.396 2.996-1.068 5.92-2.404 8.728-4.008 2.808-1.608 5.5-3.484 8.032-5.632 5.076-4.312 9.024-9.316 11.808-14.68 2.8-5.388 4.432-11.144 4.86-16.928 0.432-5.816-0.348-11.66-2.384-17.184-2.040-5.556-5.344-10.784-9.936-15.324-2.304-2.28-4.824-4.276-7.504-5.992-2.692-1.72-5.544-3.152-8.512-4.3-2.976-1.148-6.064-2.012-9.216-2.588-3.156-0.576-6.38-0.864-9.616-0.864-3.236 0-6.488 0.288-9.704 0.864-3.216 0.576-6.396 1.44-9.488 2.588-3.088 1.148-6.096 2.58-8.964 4.3-2.864 1.712-5.588 3.712-8.132 5.992-4.164 3.732-7.504 7.932-10.020 12.388-2.504 4.44-4.188 9.144-5.048 13.904-0.856 4.744-0.896 9.552-0.12 14.228 0.776 4.66 2.36 9.196 4.756 13.42l-38.144 33.524c-2.716-1.592-5.54-2.988-8.448-4.184-2.908-1.2-5.904-2.2-8.952-3-3.052-0.8-6.16-1.4-9.292-1.804-3.136-0.4-6.3-0.6-9.464-0.6-2.656 0-5.312 0.14-7.952 0.424-2.64 0.284-5.26 0.708-7.852 1.276-2.588 0.564-5.144 1.268-7.648 2.116-2.504 0.844-4.96 1.832-7.348 2.956l-40.928-36.1c1.548-3.996 2.44-8.176 2.684-12.416 0.244-4.252-0.172-8.564-1.248-12.788-1.076-4.24-2.816-8.4-5.216-12.332-2.408-3.948-5.48-7.664-9.212-11.012-2.544-2.28-5.268-4.276-8.132-5.992-2.868-1.72-5.872-3.152-8.964-4.3-3.096-1.148-6.272-2.012-9.488-2.588-3.216-0.576-6.468-0.864-9.708-0.864-3.236 0-6.46 0.288-9.616 0.864-3.152 0.576-6.244 1.44-9.216 2.588-2.972 1.148-5.824 2.58-8.512 4.3-2.684 1.712-5.2 3.712-7.504 5.992-4.592 4.544-7.896 9.772-9.936 15.324-2.032 5.524-2.816 11.372-2.384 17.184 0.432 5.784 2.060 11.54 4.86 16.928 2.788 5.364 6.732 10.368 11.808 14.68 2.528 2.148 5.224 4.024 8.036 5.628 2.804 1.604 5.728 2.94 8.724 4.008 2.996 1.064 6.060 1.864 9.156 2.396 3.096 0.532 6.216 0.796 9.328 0.796 2.188 0 4.368-0.132 6.528-0.392 2.16-0.264 4.296-0.66 6.396-1.188 2.1-0.524 4.164-1.184 6.176-1.976 2.012-0.792 3.972-1.716 5.868-2.772l37.372 32.392c-3.728 4.856-6.5 10.092-8.316 15.508-1.808 5.388-2.676 10.956-2.612 16.504 0.060 5.52 1.044 11.024 2.932 16.32 1.88 5.268 4.66 10.336 8.328 15.020l-34.444 30.276c-1.744-0.788-3.524-1.476-5.34-2.068s-3.664-1.084-5.532-1.48c-1.864-0.392-3.752-0.688-5.648-0.888-1.892-0.196-3.796-0.296-5.692-0.296-2.948 0-5.884 0.24-8.764 0.716-2.88 0.476-5.696 1.192-8.408 2.148-2.712 0.952-5.32 2.144-7.78 3.568-2.452 1.424-4.76 3.080-6.872 4.976-4.212 3.776-7.256 8.124-9.148 12.74-1.888 4.6-2.632 9.464-2.276 14.304 0.356 4.82 1.812 9.616 4.34 14.112 2.516 4.472 6.092 8.644 10.708 12.244 2.3 1.796 4.752 3.36 7.312 4.704 2.556 1.34 5.224 2.456 7.956 3.348 2.732 0.888 5.532 1.56 8.36 2.004 2.828 0.444 5.684 0.668 8.528 0.668 2.844 0 5.676-0.22 8.456-0.668 2.784-0.444 5.512-1.112 8.152-2.004 2.64-0.892 5.188-2.008 7.608-3.348 2.42-1.344 4.708-2.908 6.82-4.704 3.256-2.764 5.86-5.868 7.82-9.184 1.968-3.328 3.288-6.872 3.956-10.508 0.676-3.648 0.692-7.388 0.060-11.088-0.632-3.712-1.924-7.388-3.872-10.892l35.92-31.028c2.44 1.18 4.948 2.208 7.504 3.088 2.556 0.88 5.156 1.616 7.796 2.2 2.632 0.588 5.304 1.028 7.988 1.32 2.684 0.292 5.388 0.44 8.084 0.44 3.176 0 6.352-0.2 9.5-0.608 3.148-0.404 6.272-1.012 9.344-1.824 3.076-0.812 6.092-1.824 9.028-3.044 2.94-1.22 5.8-2.644 8.548-4.276l33.776 29.272c-2.792 3.696-4.776 7.672-5.952 11.752-1.172 4.060-1.544 8.224-1.108 12.308 0.432 4.068 1.66 8.056 3.684 11.8 2.020 3.728 4.832 7.208 8.436 10.272 2.116 1.796 4.4 3.36 6.82 4.704 2.416 1.34 4.964 2.456 7.608 3.348 2.64 0.888 5.372 1.56 8.152 2.004 2.784 0.444 5.616 0.664 8.46 0.664z" />
<glyph unicode="&#xe623;" d="M316.956 165.74l-11.12-64.036-37.888-8.32-27.948 25.412 16.856 57.204c12.476-0.032 24.64-1.292 36.408-3.704 8.108-1.652 16.012-3.856 23.68-6.548l20.4 117.44-0.316 3.324c12.904-3.544 25.456-7.908 37.604-13.044 18.148-7.672 36.5-18.824 36.5-18.824 8.272-5.028 10.604-15.692 5.184-23.696l-48.176-71.444c-5.404-8.020-16.588-10.476-24.86-5.452 0 0-4.992 3.040-15.88 7.64-3.428 1.448-6.908 2.8-10.444 4.044zM258.776-32.424c-59.596 0-117.176 4.096-157.98 11.232-63.96 11.2-79.1 26.212-90.032 89.292-14.54 83.968-14.32 226.432 0.488 311.076 11.172 63.928 26.2 79.068 89.276 90.032 40.028 6.948 94.54 10.792 153.472 10.792 59.456 0 116.924-4.080 157.632-11.2 63.944-11.184 79.084-26.212 90.032-89.292 14.572-83.984 14.368-226.46-0.44-311.14-11.152-63.944-26.184-79.084-89.276-90.048-39.984-6.932-94.38-10.744-153.176-10.744zM254.004 464.232c-58.068 0-111.6-3.748-150.78-10.556-56.432-9.8-66.432-19.912-76.452-77.212-14.556-83.196-14.776-223.184-0.488-305.688 9.768-56.4 19.88-66.42 77.224-76.468 39.952-6.98 96.54-10.98 155.256-10.98 57.928 0 111.364 3.716 150.464 10.492 56.448 9.816 66.448 19.928 76.468 77.24 14.556 83.212 14.76 223.216 0.44 305.736-9.816 56.432-19.928 66.432-77.224 76.468-39.856 6.964-96.332 10.964-154.908 10.964zM337.044 286.532l-6.568 68.844-38.092-60.148c8.556-1.008 17.016-2.364 25.332-4.064 6.52-1.34 12.964-2.9 19.328-4.632zM292.38 295.228c-11.736 1.388-23.68 2.096-35.792 2.096-20.936 0-41.384-2.128-61.124-6.16-19.74-4.032-38.784-10.004-56.936-17.676-18.148-7.672-36.488-18.824-36.488-18.824-8.272-5.024-10.604-15.692-5.2-23.708l48.176-71.444c5.404-8.020 16.588-10.476 24.86-5.452 0 0 4.992 3.040 15.88 7.64 10.888 4.6 22.308 8.176 34.156 10.604 11.848 2.424 24.12 3.704 36.676 3.704h0.284l34.816 118.136 0.692 1.088z" />
<glyph unicode="&#xe624;" d="M258.784-32.416h-0.008c-59.584 0-117.168 4.092-157.976 11.232-63.96 11.2-79.108 26.216-90.032 89.292-14.548 83.968-14.324 226.424 0.484 311.068 11.168 63.924 26.192 79.068 89.276 90.032 40.032 6.952 94.54 10.792 153.476 10.792 59.46 0 116.924-4.084 157.632-11.208 63.94-11.192 79.076-26.216 90.032-89.292 14.568-83.984 14.368-226.468-0.448-311.132-11.152-63.94-26.184-79.076-89.276-90.048-39.968-6.924-94.368-10.74-153.16-10.74zM254.008 464.248c-58.060 0-111.608-3.752-150.784-10.56-56.432-9.8-66.432-19.908-76.448-77.216-14.56-83.192-14.776-223.176-0.484-305.684 9.768-56.4 19.876-66.416 77.224-76.46 39.956-6.984 96.54-10.984 155.26-10.984h0.008c57.932 0 111.36 3.724 150.468 10.492 56.448 9.816 66.444 19.924 76.46 77.248 14.556 83.216 14.756 223.216 0.448 305.732-9.816 56.424-19.924 66.432-77.232 76.46-39.86 6.976-96.34 10.976-154.924 10.976zM402.836 199.584c-2.556 0-5.048-0.256-7.452-0.744l-56 101.584c6.236 7.14 9.98 16.268 9.98 26.224 0 22.836-19.708 41.352-44.012 41.352-24.304 0-44.008-18.516-44.008-41.352 0-11.824 5.284-22.476 13.744-30.012l-58.836-111.616c-4.032 0.868-8.224 1.34-12.532 1.34-9.504 0-18.448-2.232-26.288-6.168l-44.088 54.976c1.5 3.348 2.332 7.028 2.332 10.892 0 15.488-13.356 28.040-29.836 28.040-16.476 0-29.836-12.552-29.836-28.040 0-15.484 13.36-28.036 29.836-28.036 2.804 0 5.512 0.372 8.088 1.052l44.104-54.992c-6.424-8.556-10.212-18.988-10.212-30.248 0-29.008 25.028-52.524 55.9-52.524 30.868 0 55.896 23.516 55.896 52.524 0 16.236-7.844 30.752-20.164 40.384l58.832 111.608c2.3-0.352 4.66-0.54 7.068-0.54 4.328 0 8.508 0.596 12.46 1.692l56-101.588c-4.044-5.416-6.428-12.004-6.428-19.12 0-18.4 15.872-33.316 35.456-33.316 19.58 0 35.456 14.916 35.456 33.316 0 18.4-15.88 33.312-35.46 33.312z" />
<glyph unicode="&#xe625;" d="M258.784-32.416h-0.008c-59.584 0-117.168 4.092-157.976 11.232-63.96 11.2-79.108 26.216-90.032 89.292-14.548 83.968-14.324 226.424 0.484 311.068 11.168 63.924 26.192 79.068 89.276 90.032 40.032 6.952 94.54 10.792 153.476 10.792 59.46 0 116.924-4.084 157.632-11.208 63.94-11.192 79.076-26.216 90.032-89.292 14.568-83.984 14.368-226.468-0.448-311.132-11.152-63.94-26.184-79.076-89.276-90.048-39.968-6.924-94.368-10.74-153.16-10.74zM254.008 464.248c-58.060 0-111.608-3.752-150.784-10.56-56.432-9.8-66.432-19.908-76.448-77.216-14.56-83.192-14.776-223.176-0.484-305.684 9.768-56.4 19.876-66.416 77.224-76.46 39.956-6.984 96.54-10.984 155.26-10.984h0.008c57.932 0 111.36 3.724 150.468 10.492 56.448 9.816 66.444 19.924 76.46 77.248 14.556 83.216 14.756 223.216 0.448 305.732-9.816 56.424-19.924 66.432-77.232 76.46-39.86 6.976-96.34 10.976-154.924 10.976zM341.34 292.128v41.94l-86.828 41.932-86.42-41.932-0.092-41.872 86.768-41.932 86.572 41.864zM341.292 291.4v-41.912l-88.444-41.352-84.964 41.44v41.928l-86.416-41.868v-83.868l170.536-82.788v-0.816h0.004l0.856 0.4 1.032-0.5v0.98l87.36 40.812 86.664 41.852v83.84l-86.624 41.852z" />
<glyph unicode="&#xe626;" d="M258.784-32.416h-0.008c-59.584 0-117.168 4.092-157.976 11.232-63.96 11.2-79.108 26.216-90.032 89.292-14.548 83.968-14.324 226.424 0.484 311.068 11.168 63.924 26.192 79.068 89.276 90.032 40.032 6.952 94.54 10.792 153.476 10.792 59.46 0 116.924-4.084 157.632-11.208 63.94-11.192 79.076-26.216 90.032-89.292 14.568-83.984 14.368-226.468-0.448-311.132-11.152-63.94-26.184-79.076-89.276-90.048-39.968-6.924-94.368-10.74-153.16-10.74zM254.008 464.248c-58.060 0-111.608-3.752-150.784-10.56-56.432-9.8-66.432-19.908-76.448-77.216-14.56-83.192-14.776-223.176-0.484-305.684 9.768-56.4 19.876-66.416 77.224-76.46 39.956-6.984 96.54-10.984 155.26-10.984h0.008c57.932 0 111.36 3.724 150.468 10.492 56.448 9.816 66.444 19.924 76.46 77.248 14.556 83.216 14.756 223.216 0.448 305.732-9.816 56.424-19.924 66.432-77.232 76.46-39.86 6.976-96.34 10.976-154.924 10.976zM401.656 244.724c-9.32 0-17.948-2.76-25.032-7.444l-57.224 41.732c5.052 9.152 7.924 19.532 7.924 30.548 0 36.696-31.656 66.444-70.708 66.444s-70.708-29.748-70.708-66.444c0-11.016 2.872-21.396 7.92-30.548l-57.228-41.732c-7.084 4.684-15.708 7.444-25.032 7.444-24.056 0-43.564-18.332-43.564-40.94 0-22.608 19.508-40.94 43.564-40.94 24.060 0 43.568 18.332 43.568 40.94 0 5.1-1 9.976-2.812 14.48l57.22 41.732c9.476-7.952 21.24-13.528 34.256-15.764v-63.76c-25.436-5.468-44.42-26.852-44.42-52.416 0-29.7 25.624-53.78 57.236-53.78 31.604 0 57.232 24.084 57.232 53.78 0 25.564-18.98 46.948-44.42 52.416v63.76c13.012 2.236 24.78 7.816 34.256 15.764l57.22-41.732c-1.812-4.5-2.816-9.38-2.816-14.48 0-22.608 19.508-40.94 43.568-40.94s43.568 18.332 43.568 40.94c0 22.608-19.504 40.94-43.568 40.94z" />
<glyph unicode="&#xe627;" d="M258.784-32.416h-0.008c-59.584 0-117.168 4.092-157.976 11.232-63.96 11.2-79.108 26.216-90.032 89.292-14.548 83.968-14.324 226.424 0.484 311.068 11.168 63.924 26.192 79.068 89.276 90.032 40.032 6.952 94.54 10.792 153.476 10.792 59.46 0 116.924-4.084 157.632-11.208 63.94-11.192 79.076-26.216 90.032-89.292 14.568-83.984 14.368-226.468-0.448-311.132-11.152-63.94-26.184-79.076-89.276-90.048-39.968-6.924-94.368-10.74-153.16-10.74zM254.008 464.248c-58.064 0-111.608-3.752-150.784-10.56-56.432-9.8-66.432-19.908-76.448-77.216-14.56-83.192-14.776-223.176-0.484-305.684 9.768-56.4 19.876-66.416 77.224-76.46 39.956-6.984 96.54-10.984 155.26-10.984h0.008c57.932 0 111.36 3.724 150.468 10.492 56.448 9.816 66.444 19.924 76.46 77.248 14.556 83.216 14.756 223.216 0.448 305.732-9.816 56.424-19.924 66.432-77.232 76.46-39.86 6.976-96.34 10.976-154.924 10.976zM300.932 368c-67.608 0-124.308-46.632-139.724-109.488-1.376 0.064-2.756 0.1-4.148 0.1-49.184 0-89.052-39.864-89.060-89.044 0.004-24.592 9.972-46.824 26.084-62.932 16.116-16.12 38.384-26.028 62.976-26.028s46.86 10.080 62.976 26.196c13.96 13.96 23.292 32.652 25.544 53.428l-20.4 2.516c-7.328 0.904-9.684 6.464-5.24 12.36l39.84 52.804c4.448 5.896 10.44 5.156 13.32-1.644l25.812-60.904c2.88-6.796-0.756-11.62-8.084-10.716l-18.048 2.228c-2.74-25.104-13.26-47.212-29.056-64.768 17.532-7.608 36.864-11.848 57.196-11.848 79.456 0 143.868 64.412 143.868 143.868 0 79.456-64.412 143.868-143.868 143.868z" />
<glyph unicode="&#xe628;" d="M258.784-32.416h-0.008c-59.584 0-117.168 4.092-157.976 11.232-63.96 11.2-79.108 26.216-90.032 89.292-14.548 83.968-14.324 226.424 0.484 311.068 11.168 63.924 26.192 79.068 89.276 90.032 40.032 6.952 94.54 10.792 153.476 10.792 59.46 0 116.924-4.084 157.632-11.208 63.94-11.192 79.076-26.216 90.032-89.292 14.568-83.984 14.368-226.468-0.448-311.132-11.152-63.94-26.184-79.076-89.276-90.048-39.968-6.924-94.368-10.74-153.16-10.74zM254.008 464.248c-58.064 0-111.608-3.752-150.784-10.56-56.432-9.8-66.432-19.908-76.448-77.216-14.56-83.192-14.776-223.176-0.484-305.684 9.768-56.4 19.876-66.416 77.224-76.46 39.956-6.984 96.54-10.984 155.26-10.984h0.008c57.932 0 111.36 3.724 150.468 10.492 56.448 9.816 66.444 19.924 76.46 77.248 14.556 83.216 14.756 223.216 0.448 305.732-9.816 56.424-19.924 66.432-77.232 76.46-39.86 6.976-96.34 10.976-154.924 10.976zM296.416 169.072c-5.024 0-9.104-3.828-9.104-8.548s4.080-8.564 9.104-8.564c4.996 0 9.084 3.84 9.084 8.564 0 4.72-4.088 8.548-9.084 8.548zM352.464 287.124c-3.516 0-7.12-0.164-10.832-0.508-0.92 3.468-18.416 69.38-90.084 69.388-5.108 0-10.48-0.352-16.14-1.104-85.112-11.356-74.792-84.292-74.252-88.132-0.084 0.008-1.708 0.128-4.644 0.128-16.62 0-72.704-4.128-82.968-59.084-12.972-69.508 59.236-95.668 85.808-95.668h182.892c3.012 0.012 60.256 0.236 87.404 53.572 25.916 50.864-4.652 121.412-77.188 121.412zM324.428 154.412c0-6.528-7.008-10.52-13.976-10.52h-122.524c-6.944 0-10.38 3.996-10.38 10.52v13.116c0 6.528 3.436 9.62 10.38 9.62h122.524c6.968 0 13.976-3.092 13.976-9.62v-13.116zM324.428 195.204c0-6.528-7.008-10.52-13.976-10.52h-122.524c-6.944 0-10.38 3.996-10.38 10.52v13.116c0 6.528 3.436 9.62 10.38 9.62h122.524c6.968 0 13.976-3.092 13.976-9.62v-13.116zM324.428 233.812c0-6.532-7.008-8.288-13.976-8.288h-122.524c-6.944 0-10.38 1.76-10.38 8.288v12.824c0 6.528 3.436 11.86 10.38 11.86h122.524c6.968 0 13.976-5.332 13.976-11.86v-12.824zM296.412 248.64c-5.024 0-9.104-3.56-9.104-8.276 0-4.72 4.080-8.556 9.104-8.556 4.996 0 9.084 3.832 9.084 8.556 0 4.716-4.088 8.276-9.084 8.276z" />
<glyph unicode="&#xe629;" d="M258.784-32.416h-0.008c-59.584 0-117.168 4.092-157.976 11.232-63.96 11.2-79.108 26.216-90.032 89.292-14.548 83.968-14.324 226.424 0.484 311.068 11.168 63.924 26.192 79.068 89.276 90.032 40.032 6.952 94.54 10.792 153.476 10.792 59.46 0 116.924-4.084 157.632-11.208 63.94-11.192 79.076-26.216 90.032-89.292 14.568-83.984 14.368-226.468-0.448-311.132-11.152-63.94-26.184-79.076-89.276-90.048-39.968-6.924-94.368-10.74-153.16-10.74zM254.008 464.248c-58.064 0-111.608-3.752-150.784-10.56-56.432-9.8-66.432-19.908-76.448-77.216-14.56-83.192-14.776-223.176-0.484-305.684 9.768-56.4 19.876-66.416 77.224-76.46 39.956-6.984 96.54-10.984 155.26-10.984h0.008c57.932 0 111.36 3.724 150.468 10.492 56.448 9.816 66.444 19.924 76.46 77.248 14.556 83.216 14.756 223.216 0.448 305.732-9.816 56.424-19.924 66.432-77.232 76.46-39.86 6.976-96.34 10.976-154.924 10.976zM411.32 286.376l-45.144 69.624h-85.756l-22.496-36.084-22.496 36.084h-90.28l-45.144-69.624 45.144-75.192h55.46l-32.96-50.088 45.136-72.408h90.288l40.616 72.408-28.436 50.088h50.928l45.144 75.192zM211.38 233.952l0.696 1.044 45.5 55.58 43.060-56.624h-89.256z" />
<glyph unicode="&#xe62a;" d="M258.784-32.416h-0.008c-59.584 0-117.168 4.092-157.976 11.232-63.96 11.2-79.108 26.216-90.032 89.292-14.548 83.968-14.324 226.424 0.484 311.068 11.168 63.924 26.192 79.068 89.276 90.032 40.032 6.952 94.54 10.792 153.476 10.792 59.46 0 116.924-4.084 157.632-11.208 63.94-11.192 79.076-26.216 90.032-89.292 14.568-83.984 14.368-226.468-0.448-311.132-11.152-63.94-26.184-79.076-89.276-90.048-39.968-6.924-94.368-10.74-153.16-10.74zM254.008 464.248c-58.064 0-111.608-3.752-150.784-10.56-56.432-9.8-66.432-19.908-76.448-77.216-14.56-83.192-14.776-223.176-0.484-305.684 9.768-56.4 19.876-66.416 77.224-76.46 39.956-6.984 96.54-10.984 155.26-10.984h0.008c57.932 0 111.36 3.724 150.468 10.492 56.448 9.816 66.444 19.924 76.46 77.248 14.556 83.216 14.756 223.216 0.448 305.732-9.816 56.424-19.924 66.432-77.232 76.46-39.86 6.976-96.34 10.976-154.924 10.976zM258.152 383.876v0.124h-0.636l-0.008-0.004h-0.556v-0.148l-140.948-37.356 8.236-149.252c0-0.992 0-19.836 6.032-31.172 30.344-57.004 102.2-91.644 125.24-101.896l1.436-0.568v-0.336l0.556 0.176 0.628-0.18 0.020 0.004v0.384l1.128 0.516c23.036 10.256 94.896 44.892 125.24 101.896 6.032 11.336 6.636 30.18 6.668 31.172l8.26 149.256-141.296 37.384zM345.132 221.58c-13.72-26.956-42.648-27.128-44.172-27.128l-91.212 0.004c-13.428 0-49.916 13.276-43.364 48.4 5.184 27.768 33.524 29.884 41.924 29.884l2.348-0.052c-0.276 1.94-5.492 38.804 37.52 44.54 2.856 0.384 5.576 0.564 8.16 0.564l0.612-0.008v-0.020c34.696-1.092 43.244-33.308 43.7-35.032 1.872 0.172 3.7 0.256 5.472 0.256 36.656 0.004 52.1-35.708 39.004-61.408z" />
<glyph unicode="&#xe62b;" d="M258.784-32.416h-0.008c-59.584 0-117.168 4.092-157.976 11.232-63.96 11.2-79.108 26.216-90.032 89.292-14.548 83.968-14.324 226.424 0.484 311.068 11.168 63.924 26.192 79.068 89.276 90.032 40.032 6.952 94.54 10.792 153.476 10.792 59.46 0 116.924-4.084 157.632-11.208 63.94-11.192 79.076-26.216 90.032-89.292 14.568-83.984 14.368-226.468-0.448-311.132-11.152-63.94-26.184-79.076-89.276-90.048-39.968-6.924-94.368-10.74-153.16-10.74zM254.008 464.248c-58.064 0-111.608-3.752-150.784-10.56-56.432-9.8-66.432-19.908-76.448-77.216-14.56-83.192-14.776-223.176-0.484-305.684 9.768-56.4 19.876-66.416 77.224-76.46 39.956-6.984 96.54-10.984 155.26-10.984h0.008c57.932 0 111.36 3.724 150.468 10.492 56.448 9.816 66.444 19.924 76.46 77.248 14.556 83.216 14.756 223.216 0.448 305.732-9.816 56.424-19.924 66.432-77.232 76.46-39.86 6.976-96.34 10.976-154.924 10.976zM330.324 203.264l-33.14 46.588c12.32 10.312 20.256 25.296 20.184 42.028-0.136 30.988-27.004 56.12-60.24 56.12-33.052-0.164-59.8-25.576-59.672-56.596 0.088-16.748 8.156-31.624 20.56-41.912l-32.66-46.876c-7.748 3.428-16.296 5.524-25.676 5.524-33.020-0.164-59.808-25.544-59.68-56.644 0.136-30.928 27.016-56.040 60.24-56.040 30.172 0.132 54.864 21.352 58.856 48.7l78.048 0.328c4.276-27.236 29.052-48.208 59.324-48.208 33.060 0.152 59.844 25.544 59.672 56.596-0.124 30.992-27.048 56.116-60.232 56.116-9.148-0.076-17.772-2.216-25.592-5.72zM219.008 159.968c-2.104 13.472-9.228 25.376-19.616 33.976l32.632 46.916c7.692-3.444 16.14-5.528 25.112-5.528l0.548 0.004c9.2 0.032 17.824 2.176 25.636 5.724l33.096-46.636c-10.336-8.72-17.384-20.612-19.352-34.132l-78.052-0.324z" />
<glyph unicode="&#xe62c;" d="M144.468 219.6h-96.152c-17.808 0-32.312 14.436-32.312 32.252v191.892c0 17.848 14.492 32.252 32.312 32.252h96.168c17.792 0 32.232-14.42 32.232-32.252v-191.892c0-17.816-14.46-32.252-32.248-32.252zM464.148-36.172h-415.832c-17.808 0-32.312 14.42-32.312 32.236v127.932c0 17.848 14.492 32.3 32.312 32.3h415.848c17.744 0 32.232-14.436 32.232-32.3v-127.932c-0.016-17.816-14.508-32.236-32.248-32.236zM464.148 219.6h-206.024c-17.808 0-18.804 14.436-18.804 32.252v191.892c0 17.848 14.46 32.252 32.312 32.252h192.516c17.744 0 32.232-14.42 32.232-32.252v-191.892c0-17.816-14.492-32.252-32.232-32.252z" />
<glyph unicode="&#xe62d;" d="M417.992 435.996c4.32 0 8.672-0.34 12.976-1.028 4.304-0.68 8.572-1.708 12.728-3.072 4.164-1.368 8.228-3.088 12.116-5.14 3.896-2.068 7.632-4.468 11.136-7.224 7.020-5.532 12.468-11.944 16.296-18.812 3.844-6.896 6.060-14.264 6.604-21.668 0.548-7.44-0.596-14.908-3.46-21.972-2.884-7.092-7.508-13.772-13.924-19.564-3.212-2.908-6.728-5.46-10.464-7.648-3.736-2.196-7.712-4.020-11.84-5.48-4.128-1.468-8.42-2.568-12.796-3.304-4.384-0.736-8.856-1.1-13.348-1.1-2.12 0-4.244 0.088-6.372 0.252-2.12 0.16-4.244 0.412-6.344 0.736-2.112 0.332-4.208 0.744-6.292 1.228-2.076 0.492-4.136 1.064-6.176 1.72l-56.22-50.024c4.012-6.376 7.048-13.108 9.096-20.036 2.068-6.956 3.14-14.1 3.22-21.264 0.072-7.208-0.86-14.424-2.824-21.48-1.96-7.084-4.96-14.004-8.992-20.584l60.508-52.728c2.336 0.94 4.712 1.764 7.128 2.472 2.412 0.708 4.864 1.3 7.34 1.764 2.476 0.476 4.98 0.824 7.5 1.064 2.52 0.232 5.060 0.348 7.596 0.348 4.732 0 9.488-0.412 14.2-1.228 4.712-0.816 9.388-2.040 13.944-3.68 4.56-1.64 9.016-3.688 13.284-6.152 4.276-2.464 8.376-5.344 12.228-8.648 7.72-6.624 13.728-14.308 17.972-22.536 4.26-8.284 6.744-17.12 7.4-26 0.656-8.936-0.532-17.908-3.628-26.396-3.104-8.532-8.128-16.556-15.124-23.54-3.504-3.5-7.34-6.564-11.432-9.196-4.092-2.64-8.432-4.844-12.956-6.608-4.528-1.764-9.228-3.088-14.032-3.968-4.8-0.888-9.708-1.336-14.636-1.336-4.936 0-9.888 0.448-14.784 1.336-4.892 0.876-9.728 2.204-14.44 3.968-4.704 1.764-9.276 3.968-13.64 6.608-4.356 2.632-8.512 5.696-12.38 9.196-6.344 5.74-11.432 12.184-15.256 19.028-3.816 6.824-6.372 14.040-7.684 21.364-1.296 7.28-1.36 14.668-0.176 21.848 1.18 7.164 3.596 14.128 7.24 20.612l-58.060 51.492c-4.136-2.444-8.432-4.592-12.86-6.428-4.428-1.844-8.992-3.384-13.624-4.612-4.648-1.228-9.38-2.148-14.144-2.768-4.776-0.616-9.592-0.932-14.404-0.932-4.048 0-8.084 0.224-12.104 0.652-4.020 0.44-8.016 1.092-11.952 1.96-3.94 0.86-7.828 1.944-11.644 3.248-3.808 1.3-7.552 2.812-11.184 4.54l-62.308-55.44c2.36-6.132 3.72-12.564 4.092-19.072 0.364-6.528-0.264-13.144-1.9-19.636-1.644-6.52-4.288-12.9-7.944-18.944-3.664-6.060-8.344-11.772-14.024-16.912-3.868-3.5-8.024-6.564-12.38-9.196-4.368-2.64-8.936-4.844-13.64-6.608-4.712-1.764-9.548-3.088-14.448-3.968-4.892-0.888-9.844-1.336-14.768-1.336-4.936 0-9.844 0.448-14.644 1.336-4.8 0.876-9.504 2.204-14.032 3.968-4.516 1.764-8.864 3.968-12.956 6.608-4.084 2.632-7.916 5.696-11.42 9.196-6.992 6.984-12.016 15.004-15.132 23.54-3.088 8.488-4.288 17.46-3.628 26.396 0.656 8.88 3.14 17.72 7.4 26 4.244 8.228 10.252 15.908 17.98 22.536 3.852 3.296 7.952 6.176 12.228 8.648 4.268 2.464 8.716 4.512 13.276 6.152 4.56 1.64 9.232 2.864 13.944 3.68 4.712 0.816 9.468 1.228 14.2 1.228 3.328 0 6.656-0.208 9.94-0.608 3.284-0.404 6.54-1.012 9.736-1.816 3.196-0.804 6.344-1.816 9.408-3.036 3.060-1.216 6.044-2.632 8.928-4.264l56.888 49.744c-5.672 7.46-9.888 15.5-12.656 23.816-2.752 8.284-4.072 16.824-3.976 25.348 0.088 8.48 1.588 16.932 4.464 25.060 2.856 8.092 7.092 15.876 12.672 23.072l-52.432 46.488c-2.644-1.208-5.36-2.264-8.128-3.168-2.76-0.912-5.572-1.664-8.412-2.276-2.848-0.608-5.716-1.064-8.6-1.36-2.884-0.304-5.776-0.456-8.664-0.456-4.492 0-8.964 0.368-13.348 1.1-4.376 0.736-8.664 1.828-12.796 3.296-4.128 1.46-8.092 3.296-11.84 5.48-3.736 2.184-7.24 4.736-10.464 7.648-6.408 5.792-11.040 12.472-13.924 19.564-2.868 7.064-4.012 14.532-3.46 21.972 0.54 7.404 2.76 14.772 6.604 21.668 3.836 6.868 9.276 13.276 16.304 18.812 3.496 2.756 7.232 5.156 11.128 7.224 3.896 2.052 7.952 3.768 12.116 5.14 4.152 1.36 8.42 2.392 12.728 3.072 4.304 0.688 8.652 1.028 12.984 1.028 4.32 0 8.636-0.34 12.868-1.028 4.232-0.68 8.396-1.708 12.408-3.072 4.020-1.368 7.9-3.088 11.58-5.14 3.684-2.068 7.16-4.468 10.384-7.224 4.952-4.244 8.92-9.016 11.9-14.112 3-5.104 5.004-10.548 6.028-16.132 1.020-5.596 1.056-11.336 0.1-17.020-0.968-5.704-2.936-11.344-5.892-16.724l54.676-47.648c3.708 1.808 7.524 3.384 11.412 4.736s7.852 2.48 11.864 3.384c4.012 0.896 8.076 1.568 12.16 2.024 4.092 0.448 8.2 0.672 12.316 0.672 4.828 0 9.664-0.312 14.456-0.932 4.792-0.628 9.548-1.556 14.224-2.804 4.668-1.244 9.264-2.804 13.74-4.672 4.472-1.872 8.832-4.064 13.012-6.572l51.412 44.956c-4.244 5.676-7.268 11.784-9.060 18.052-1.784 6.24-2.344 12.632-1.688 18.9 0.656 6.248 2.528 12.372 5.608 18.12 3.072 5.72 7.356 11.068 12.84 15.776 3.22 2.756 6.7 5.156 10.384 7.224 3.684 2.052 7.56 3.768 11.58 5.14 4.012 1.36 8.172 2.392 12.408 3.072 4.228 0.688 8.54 1.028 12.872 1.028z" />
<glyph unicode="&#xe62e;" d="M500.18 273.8s-28.876 17.568-57.42 29.656c-19.116 8.096-38.876 14.968-59.172 20.544l0.5-5.244-32.092-184.976c5.568-1.96 11.056-4.084 16.46-6.372 17.128-7.252 24.996-12.040 24.996-12.040 13-7.912 30.6-4.052 39.108 8.576l75.792 112.516c8.504 12.628 4.824 29.436-8.176 37.348zM258.528 148l-26.528-90.088 43.964-40.016 59.62 13.112 17.496 100.848c-12.080 4.252-24.528 7.712-37.284 10.328-18.5 3.788-37.652 5.792-57.268 5.82zM382.272 323.572l-10.348 108.428-59.924-94.732c13.468-1.584 26.764-3.724 39.864-6.408 10.26-2.1 20.396-4.54 30.408-7.288zM312.24 336.704c-18.468 2.172-37.256 3.3-56.308 3.3-32.944 0-65.108-3.34-96.176-9.704-31.064-6.364-61.032-15.748-89.576-27.832-28.548-12.084-57.42-29.656-57.42-29.656-13-7.912-16.68-24.716-8.172-37.344l75.792-112.516c8.508-12.628 26.104-16.488 39.108-8.576 0 0 7.868 4.788 24.996 12.040 17.128 7.252 35.108 12.88 53.744 16.7 18.64 3.816 37.94 5.824 57.704 5.824l0.436-0.004 54.784 186.052 1.088 1.72z" />
<glyph unicode="&#xe62f;" d="M449.944 145.768c-0.86 0 7.008-8.488 6.052-8.552l-62.16 179.612c10.932 11.58 19.872 27.2 19.872 44.436 0 35.64-30.984 78.736-66.444 78.736-35.508 0-67.516-43.1-67.516-78.736 0-17.656 10.332-33.684 21.804-45.316l-98.32-154.688c-7.804 2.328-14.924 0.324-23.52 0.324-11.324 0-19.936-1.14-29.864-5.116l-40.232 108.4c5.42 8.032 17.064 31.176 17.064 44.352 0 35.1-27.348 77.304-62.308 77.304-34.992 0-64.368-42.204-64.368-77.304 0-35.168 39.888-66.7 67.724-66.7 2.256 0 1.136 3.292 3.876 3.664l42.876-113.124c-16.4-15.816-21.2-33.62-21.2-58.28 0-47.936 38.672-86.784 86.412-86.784 47.74 0 86.464 38.848 86.464 86.784 0 26.696-12.020 50.576-30.936 66.52l99.616 156.676c4.024-0.78 8.176-1.22 12.424-1.22 5.092 0 9.976 0.636 14.696 1.744l45.468-173.404c-6.116-8.78-12.492-34.712-12.492-46.26 0-30.248 32.88-62.288 62.988-62.288 30.108 0 54.488 43.164 54.488 73.364 0.016 30.184-37.504 55.852-62.472 55.852z" />
<glyph unicode="&#xe630;" d="M384.216 378.208l-128.056 69.792-128.056-69.792-0.88-59.696 128.984-59.792 128.008 59.696v-59.792l-128.056-59.548-128.056 59.548v59.792l-128.104-59.696v-151.64l128.4-59.648 127.76-63.272 128.008 63.224 128.152 59.696v151.64l-128.104 59.792v59.696z" />
<glyph unicode="&#xe631;" d="M256.060 428c53.012 0 95.992-40.58 95.992-90.648 0-15.028-3.896-29.192-10.756-41.676l77.692-56.932c9.616 6.392 21.332 10.156 33.984 10.156 32.656 0 59.144-25.004 59.144-55.856 0-30.844-26.488-55.848-59.144-55.848-32.668 0-59.152 25.004-59.152 55.848 0 6.96 1.36 13.612 3.824 19.756l-77.684 56.924c-12.86-10.84-28.844-18.448-46.508-21.5v-86.984c34.54-7.46 60.308-36.632 60.308-71.508 0-40.516-34.796-73.372-77.7-73.372-42.916 0-77.7 32.86-77.7 73.372 0 34.872 25.768 64.048 60.308 71.508v86.984c-17.672 3.052-33.648 10.66-46.508 21.5l-77.684-56.924c2.456-6.144 3.816-12.796 3.816-19.756 0-30.844-26.48-55.848-59.144-55.848-32.656 0-59.144 25.004-59.144 55.848 0 30.852 26.488 55.856 59.144 55.856 12.656 0 24.368-3.768 33.984-10.156l77.684 56.932c-6.852 12.484-10.748 26.648-10.748 41.676 0 50.064 42.98 90.648 95.992 90.648z" />
<glyph unicode="&#xe632;" d="M316.708 416c-91.944 0-169.028-63.564-189.984-149.216-1.868 0.1-3.74 0.148-5.656 0.148-66.856 0-121.064-54.344-121.064-121.356 0-33.532 13.576-63.812 35.472-85.752 21.892-21.992 52.192-35.504 85.596-35.504 33.452 0 63.756 13.76 85.644 35.7 18.988 19.036 29.664 44.528 32.712 72.836l-43.832 3.452c-9.936 1.232-13.136 8.776-7.084 16.816l74.28 92.116c6 8.040 14.168 7.052 18.104-2.22l42.108-103.16c3.936-9.272-1.032-15.828-10.972-14.596l-32.616 3.008c-3.688-34.172-19.036-64.352-40.488-88.268 23.86-10.356 50.128-16.124 77.776-16.124 108.028 0 195.592 87.776 195.592 196.064s-87.564 196.064-195.592 196.064z" />
<glyph unicode="&#xe633;" d="M466.368-20h-420.868c-25.136 0-45.496 18.044-45.496 43.012v50.024c0 24.92 20.36 42.964 45.496 42.964h420.884c25.136 0 45.516-18.044 45.516-42.964v-50.024c-0.016-24.968-20.38-43.012-45.532-43.012zM416 80c-17.62 0-32-14.292-32-31.984s14.38-32.016 32-32.016c17.636 0 32 14.34 32 32.016s-14.348 31.984-32 31.984zM466.368 152h-420.868c-25.136 0-45.496 18.028-45.496 42.968v50.064c0 24.92 20.36 42.968 45.496 42.968h420.884c25.136 0 45.516-18.028 45.516-42.968v-50.064c-0.016-24.94-20.38-42.968-45.532-42.968zM384 219.984c0-17.616 14.38-31.984 32-31.984 17.636 0 32 14.368 32 31.984 0.016 17.684-14.348 32.016-32 32.016-17.62 0-32-14.316-32-32.016zM466.368 328h-420.868c-25.136 0-45.496 17.568-45.496 41.724v48.488c0 24.22 20.36 41.788 45.496 41.788h420.884c25.136 0 45.516-17.568 45.516-41.788v-48.504c-0.016-24.14-20.38-41.708-45.532-41.708zM416 424c-17.62 0-32-14.34-32-32.016s14.38-31.984 32-31.984c17.636 0 32 14.308 32 31.984 0 17.676-14.348 32.016-32 32.016z" />
<glyph unicode="&#xe634;" d="M102.828 120.984l41.864 68.252h-67.82l-76.876 125.38 76.876 125.38h152.264l26.692-43.556 26.704 43.556h152.256l76.876-125.38-76.876-125.38h-67.812l41.856-68.252-76.928-124.664h-152.2l-76.876 124.664zM255.832 312.024l-47.896-76.136h95.932l-48.036 76.136z" />
<glyph unicode="&#xe635;" d="M256.68 480h-2.044l-238.636-79.048 40.964-233.852s0-31.112 8.956-48.892c45-89.332 151.556-132.696 185.792-148.752 0 0 3.236-1.588 3.676-1.364 0.636-0.308 3.724 1.364 3.724 1.364 34.136 16.060 140.692 59.42 185.756 148.752 8.904 17.78 9.836 48.892 9.836 48.892l41.048 233.852-239.076 79.048zM396.864 203.856c-21.504-42.452-69.348-42.648-69.348-42.648h-145.136c-21.096 0-78.384 20.78-68.108 76.16 9.576 51.504 69.512 46.928 69.512 46.928s-8.612 61.124 58.94 70.16c67.52 9.036 84.316-54.376 84.316-54.376 63.664 5.904 91.424-53.792 69.824-96.228z" />
<glyph unicode="&#xe636;" d="M372.94 194.084l-53.672 80.46c20.020 17.88 32.788 43.692 32.644 72.56-0.26 53.64-43.92 97.152-97.492 96.892-53.572-0.26-96.86-44.18-96.616-97.756 0.112-28.884 13.176-54.516 33.228-72.284l-52.828-80.964c-12.72 5.996-26.656 9.592-41.6 9.524-53.492-0.228-96.86-44.1-96.6-97.756 0.18-53.592 43.92-97.056 97.492-96.764 48.868 0.196 88.828 36.832 95.32 84.068l126.436 0.6c6.864-47.204 47.164-83.468 96.064-83.272 53.54 0.26 96.86 44.068 96.684 97.724-0.276 53.64-44.084 97.104-97.576 96.86-14.86-0.064-28.88-3.836-41.488-9.9zM318.528 123.080l-126.684-0.572c-3.432 23.352-14.972 44.012-31.844 58.94l52.98 81.364c12.712-6.008 26.708-9.684 41.648-9.552 14.892 0.032 29 3.804 41.568 9.896l53.808-80.84c-16.888-15.124-28.252-35.832-31.472-59.232z" />
<glyph unicode="&#xe637;" d="M512 400c0 44.182-35.817 80-80 80-18.010 0-34.629-5.955-48-16l-32-32 112-112 32 32c10.045 13.371 16 29.989 16 48v0zM144 0l-144-32 32 144 296 296 112-112-296-296z" />
</font>
</defs>
</svg>
